<svg xmlns="http://www.w3.org/2000/svg" viewBox="0 0 100 100"><rect width="100" height="100" rx="20" fill="#23201A"/><svg x="29" y="8" width="42" height="84" viewBox="0 0 1448 2731" preserveAspectRatio="xMidYMid meet"><g transform="translate(0,2731) scale(0.1,-0.1)" fill="#FF7220"><path d="M8320 27001 c-138 -92 -275 -193 -325 -240 -22 -21 -168 -136 -325
-256 -157 -120 -312 -239 -345 -265 -63 -48 -789 -608 -2080 -1601 -418 -322
-868 -668 -1000 -770 -258 -199 -374 -286 -418 -314 -26 -17 -52 -17 -605 0
-640 19 -671 18 -724 -35 -51 -52 -30 -143 41 -172 35 -15 227 -25 691 -37
212 -5 431 -13 487 -17 102 -7 102 -7 89 -33 -86 -168 -125 -435 -91 -624 15
-88 27 -113 139 -294 175 -286 285 -480 404 -713 69 -135 154 -294 190 -355
62 -105 93 -159 204 -358 27 -49 47 -91 44 -94 -12 -12 -236 227 -325 346 -98
132 -287 430 -441 696 -143 246 -196 322 -300 426 -138 140 -145 142 -295 54
-205 -119 -358 -248 -672 -565 -341 -344 -724 -941 -881 -1373 -106 -289 -189
-725 -208 -1092 -4 -79 -1 -115 13 -170 19 -69 44 -94 51 -50 2 11 17 75 33
142 53 218 113 393 234 682 33 80 149 313 217 434 28 51 64 117 81 147 147
267 340 520 395 520 27 0 92 -128 173 -340 161 -421 301 -693 453 -879 248
-306 498 -437 889 -466 56 -4 87 -11 87 -19 0 -6 -54 -65 -121 -131 -343 -340
-467 -564 -514 -928 -20 -147 -23 -719 -6 -997 6 -102 15 -306 21 -455 6 -148
15 -364 20 -480 5 -115 10 -257 10 -315 0 -105 0 -105 -63 -161 -34 -30 -129
-109 -212 -174 -82 -66 -177 -144 -210 -174 -33 -30 -103 -93 -155 -140 -221
-199 -430 -450 -513 -615 -57 -113 -80 -274 -56 -388 21 -102 139 -187 257
-188 133 0 188 62 246 275 51 189 76 227 168 254 128 39 326 -200 413 -497 19
-64 32 -154 50 -342 59 -623 79 -1264 90 -2805 4 -476 12 -932 21 -1105 43
-888 41 -1002 -24 -1186 -65 -184 -208 -426 -324 -548 l-76 -81 -159 156 c-87
86 -185 180 -218 210 -32 30 -108 100 -169 157 -401 377 -722 425 -1231 182
-150 -71 -219 -119 -420 -288 -258 -218 -397 -365 -472 -497 -167 -296 -197
-562 -93 -833 48 -124 146 -236 251 -285 184 -85 217 -94 395 -104 190 -10
436 23 686 92 108 30 138 41 395 142 l192 75 103 -76 c57 -42 175 -132 263
-201 156 -122 220 -168 495 -351 289 -193 401 -253 720 -385 664 -273 908
-285 1365 -65 136 66 302 164 420 249 105 75 459 360 549 441 149 135 289 316
364 474 36 76 37 79 37 197 0 85 -5 136 -17 176 -38 124 -196 314 -322 388
-99 59 -156 73 -307 79 -225 8 -326 -35 -469 -199 -114 -130 -136 -180 -100
-224 55 -66 132 -27 277 142 87 101 172 107 315 23 131 -78 190 -182 189 -333
0 -136 -54 -249 -176 -373 -160 -161 -383 -283 -601 -330 -134 -28 -380 -9
-532 41 -289 96 -638 316 -1078 681 -123 102 -490 448 -498 470 -3 8 12 27 39
47 245 188 612 559 801 811 52 69 198 287 239 356 21 36 66 108 100 160 93
142 215 393 253 520 6 19 40 127 76 240 136 425 129 272 135 3011 5 1983 8
2288 21 2304 37 45 175 1 648 -206 622 -272 933 -453 1252 -728 102 -88 130
-105 130 -78 0 14 211 224 459 457 264 248 399 379 565 549 89 91 267 273 397
405 283 288 390 408 705 789 76 93 150 183 164 200 14 18 54 68 91 112 285
347 289 354 519 715 242 382 212 333 326 545 31 58 60 105 65 105 5 0 9 9 9
21 0 12 6 35 14 52 8 18 17 43 20 57 3 14 17 68 31 120 54 200 60 776 11 1007
-8 37 -17 88 -21 113 -3 25 -19 95 -35 155 -16 61 -45 173 -65 250 -20 77 -52
187 -71 245 -38 117 -60 202 -204 771 -55 218 -104 409 -110 423 -48 126 -115
472 -136 698 -25 265 -15 481 30 665 45 185 71 244 122 268 40 19 283 18 855
-4 223 -9 212 -5 364 -126 99 -78 157 -98 268 -92 110 6 197 46 301 137 69 61
69 61 320 55 138 -3 357 -11 486 -16 567 -24 733 -28 1020 -28 427 -1 499 14
516 104 22 120 -55 143 -526 155 -179 5 -498 14 -710 20 -212 6 -527 15 -701
19 -315 9 -315 9 -429 87 -63 42 -153 97 -199 122 -114 59 -122 57 -334 -70
-168 -102 -168 -102 -390 -100 -204 2 -677 21 -686 28 -2 2 15 32 38 68 48 73
173 197 341 337 226 188 339 319 409 471 51 109 70 177 76 263 4 67 4 67 -38
61 -267 -44 -399 -16 -623 133 -136 90 -472 416 -619 601 -33 41 -109 129
-168 195 -113 124 -402 480 -523 645 -263 357 -355 497 -454 690 -24 47 -55
107 -69 135 -14 27 -33 51 -41 53 -8 1 -62 -29 -120 -67z m-810 -1461 c23 -40
117 -181 207 -314 150 -220 217 -314 487 -686 212 -291 577 -675 884 -930 95
-78 170 -145 168 -147 -4 -4 -1298 34 -1891 55 l-200 7 -6 340 c-4 187 -12
610 -18 940 -6 330 -13 634 -16 675 -5 84 -19 66 184 230 l75 59 41 -77 c23
-43 61 -111 85 -152z m-686 -382 c3 -24 10 -272 16 -553 6 -280 13 -639 17
-797 l6 -288 -96 0 c-97 0 -97 0 -97 87 0 145 -19 1107 -25 1265 -5 147 -5
147 77 237 46 49 86 89 90 90 4 1 9 -18 12 -41z m-1516 -1388 l-3 -210 -80 0
c-44 0 -110 -3 -147 -7 -68 -6 -68 -6 -68 83 0 89 0 89 148 216 81 70 148 127
150 127 2 1 2 -93 0 -209z m17 -522 c4 -4 11 -260 15 -570 25 -1700 32 -2279
27 -2285 -3 -3 -77 15 -164 39 l-158 45 -7 224 c-3 123 -11 690 -17 1259 -6
569 -14 1095 -17 1169 l-6 133 160 -3 c88 -2 163 -7 167 -11z m3010 -63 c396
-10 722 -19 723 -21 2 -1 -29 -51 -68 -110 -161 -240 -296 -507 -355 -701 -74
-247 -95 -362 -102 -562 -13 -414 34 -838 137 -1231 17 -63 57 -227 91 -365
40 -165 96 -355 164 -560 121 -359 158 -495 219 -805 84 -424 113 -728 101
-1065 -10 -313 -33 -443 -120 -710 -29 -88 -55 -173 -59 -190 -10 -44 -161
-236 -318 -404 -33 -34 -90 -97 -127 -140 -188 -212 -548 -531 -601 -531 -80
0 -182 33 -339 112 -90 44 -184 95 -210 113 -25 17 -71 46 -102 63 -57 32 -57
32 -63 225 -3 105 -10 442 -16 747 -6 305 -15 782 -20 1060 -13 627 -45 2282
-65 3345 -8 440 -20 1013 -25 1274 -5 260 -8 476 -6 480 2 3 102 3 223 0 120
-4 542 -15 938 -24z m-1468 11 c2 -2 11 -374 33 -1353 5 -249 15 -657 20 -905
6 -249 28 -1261 50 -2248 22 -987 43 -1929 46 -2092 l7 -297 -184 94 c-374
191 -810 345 -1169 414 -108 21 -334 49 -429 53 -54 3 -54 3 295 298 1059 896
1220 1033 1232 1055 9 18 10 67 2 226 -5 112 -14 497 -20 854 -6 358 -15 871
-20 1140 -5 270 -14 747 -20 1060 -6 314 -15 782 -20 1040 -6 259 -10 516 -10
573 l0 103 93 -7 c50 -4 93 -7 94 -8z m-1448 -5499 c-13 -66 -35 -134 -63
-192 -62 -131 -198 -305 -239 -305 -18 0 -19 21 -13 848 4 466 9 964 11 1107
5 295 -14 256 215 447 l105 88 3 -946 c2 -922 2 -948 -19 -1047z m-4295 -9436
c223 -101 481 -300 829 -640 88 -85 237 -255 237 -269 0 -13 -144 -85 -230
-114 -422 -143 -924 -187 -1127 -98 -118 52 -213 232 -213 403 0 231 116 488
285 632 48 42 143 112 153 114 1 1 31 -12 66 -28z M13734 17397 c-120 -79
-421 -278 -669 -442 -247 -164 -587 -389 -755 -500 -168 -111 -555 -367 -860
-570 -305 -203 -692 -459 -860 -570 -168 -111 -520 -344 -784 -519 -263 -174
-481 -314 -484 -311 -3 3 17 52 45 108 77 155 251 370 395 488 40 33 105 87
145 121 40 34 137 106 215 161 274 190 384 297 507 491 38 61 44 141 12 170
-55 50 -219 62 -332 25 -158 -52 -463 -196 -641 -305 -79 -48 -168 -101 -199
-119 -101 -58 -171 -107 -439 -307 -301 -225 -388 -299 -655 -560 -329 -321
-451 -498 -566 -821 -22 -61 -44 -128 -49 -147 -5 -19 -18 -71 -29 -115 -21
-83 -30 -157 -35 -311 -2 -50 -6 -96 -10 -103 -4 -6 -40 -33 -79 -60 -40 -26
-110 -76 -157 -110 -85 -61 -385 -263 -725 -487 -99 -65 -229 -154 -290 -197
-109 -79 -109 -79 -155 -63 -124 44 -244 -23 -305 -172 -56 -137 -83 -188
-113 -218 -17 -17 -149 -110 -294 -206 -354 -236 -443 -328 -398 -414 15 -27
64 -33 103 -13 63 33 556 357 592 389 59 53 99 62 274 64 187 2 230 13 288 79
29 34 37 55 67 197 28 129 59 163 286 316 69 46 163 111 210 144 47 32 121 83
165 113 235 157 320 214 419 282 60 41 113 75 117 75 5 0 7 -73 4 -162 -3 -90
-10 -505 -15 -923 -21 -1662 -15 -1537 -84 -1598 -34 -29 -79 -66 -101 -82
-174 -127 -611 -547 -784 -753 -212 -253 -422 -693 -450 -941 -35 -324 145
-525 377 -421 80 37 125 77 159 145 23 45 27 67 34 210 10 216 26 252 125 281
63 18 117 8 209 -40 134 -69 327 -315 404 -516 18 -47 37 -95 42 -108 12 -30
11 -372 -2 -1140 l-10 -624 -158 -261 c-87 -144 -180 -298 -206 -342 -26 -44
-69 -114 -95 -155 -245 -389 -452 -819 -572 -1185 -134 -412 -168 -614 -203
-1215 -12 -191 33 -850 74 -1105 32 -198 86 -467 120 -595 11 -41 34 -133 52
-205 69 -285 138 -495 228 -695 125 -274 180 -332 329 -346 66 -6 72 -5 138
30 38 20 87 52 109 71 95 84 213 206 280 290 88 111 356 479 408 560 21 33 94
146 161 250 68 105 148 235 178 290 31 55 86 154 123 220 135 240 348 686 436
915 158 406 147 317 153 1220 7 925 24 2501 32 3016 6 380 6 380 55 408 116
65 346 123 524 133 264 15 592 -56 792 -170 214 -122 213 -121 213 -69 0 86
-203 267 -413 368 -194 93 -327 118 -604 111 -228 -5 -305 -19 -474 -87 -44
-18 -81 -31 -84 -29 -2 2 1 346 5 764 5 418 14 1253 20 1855 6 602 15 1167 20
1255 5 88 9 664 10 1280 0 1120 0 1120 22 1138 108 84 148 114 253 188 381
271 999 710 1250 889 160 113 463 329 675 480 1399 995 2521 1794 2549 1817
28 23 35 100 11 127 -24 30 -59 15 -276 -127z m-6137 -14232 c-2 -762 -5 -891
-19 -960 -9 -44 -21 -114 -27 -155 -22 -144 -31 -196 -61 -350 -66 -337 -155
-688 -200 -785 -5 -11 -21 -49 -36 -85 -38 -93 -119 -200 -152 -200 -44 0
-162 217 -211 390 -7 25 -17 55 -22 68 -15 39 -107 489 -133 652 -70 436 -81
587 -80 1085 0 414 2 479 22 650 58 481 116 705 304 1160 102 246 154 357 220
470 33 55 63 107 68 116 5 9 34 65 65 124 63 120 180 319 222 380 28 40 28 40
35 -820 5 -473 7 -1256 5 -1740z"/></g></svg></svg>